<svg xmlns="http://www.w3.org/2000/svg" xmlns:xlink="http://www.w3.org/1999/xlink" width="1120" zoomAndPan="magnify" viewBox="0 0 840 839.999992" height="1120" preserveAspectRatio="xMidYMid meet" version="1.0"><defs><filter x="0%" y="0%" width="100%" height="100%" id="e2c7003e12"><feColorMatrix values="0 0 0 0 1 0 0 0 0 1 0 0 0 0 1 0 0 0 1 0" color-interpolation-filters="sRGB"/></filter><g/><clipPath id="531a50ad08"><path d="M 152.191406 25.484375 L 685.4375 25.484375 L 685.4375 498.734375 L 152.191406 498.734375 Z M 152.191406 25.484375 " clip-rule="nonzero"/></clipPath><clipPath id="35fceb470c"><path d="M 203.191406 25.484375 L 634.527344 25.484375 C 648.054688 25.484375 661.023438 30.859375 670.589844 40.421875 C 680.152344 49.988281 685.527344 62.960938 685.527344 76.484375 L 685.527344 447.914062 C 685.527344 461.4375 680.152344 474.410156 670.589844 483.972656 C 661.023438 493.539062 648.054688 498.910156 634.527344 498.910156 L 203.191406 498.910156 C 189.664062 498.910156 176.691406 493.539062 167.128906 483.972656 C 157.5625 474.410156 152.191406 461.4375 152.191406 447.914062 L 152.191406 76.484375 C 152.191406 62.960938 157.5625 49.988281 167.128906 40.421875 C 176.691406 30.859375 189.664062 25.484375 203.191406 25.484375 Z M 203.191406 25.484375 " clip-rule="nonzero"/></clipPath><clipPath id="eff8e5262e"><path d="M 448.992188 242.777344 L 663.1875 242.777344 L 663.1875 486.527344 L 448.992188 486.527344 Z M 448.992188 242.777344 " clip-rule="nonzero"/></clipPath><clipPath id="1c7ab06d36"><path d="M 530.148438 169.832031 L 669.5 169.832031 L 669.5 434 L 530.148438 434 Z M 530.148438 169.832031 " clip-rule="nonzero"/></clipPath><clipPath id="eb3cc3c4c0"><path d="M 175.136719 241.347656 L 389.167969 241.347656 L 389.167969 485.097656 L 175.136719 485.097656 Z M 175.136719 241.347656 " clip-rule="nonzero"/></clipPath><clipPath id="ef42126988"><path d="M 434.171875 161.003906 L 658.105469 161.003906 L 658.105469 363.503906 L 434.171875 363.503906 Z M 434.171875 161.003906 " clip-rule="nonzero"/></clipPath><clipPath id="07e8e78c5a"><path d="M 166.214844 169.832031 L 305.570312 169.832031 L 305.570312 434 L 166.214844 434 Z M 166.214844 169.832031 " clip-rule="nonzero"/></clipPath><mask id="800c6892eb"><g filter="url(#e2c7003e12)"><rect x="-84" width="1008" fill="#000000" y="-83.999999" height="1007.999991" fill-opacity="0.66"/></g></mask><clipPath id="ee34a1589e"><path d="M 1.398438 1.476562 L 295.398438 1.476562 L 295.398438 266.976562 L 1.398438 266.976562 Z M 1.398438 1.476562 " clip-rule="nonzero"/></clipPath><clipPath id="5b4618ebf0"><rect x="0" width="297" y="0" height="268"/></clipPath><clipPath id="a9ce5a2160"><path d="M 174.667969 178.5 L 398.917969 178.5 L 398.917969 381 L 174.667969 381 Z M 174.667969 178.5 " clip-rule="nonzero"/></clipPath><clipPath id="5eab53d19b"><path d="M 208 431 L 243 431 L 243 491 L 208 491 Z M 208 431 " clip-rule="nonzero"/></clipPath><clipPath id="6ab8f900ef"><path d="M 242.933594 437.503906 L 224.28125 490.246094 L 208.105469 484.523438 L 226.761719 431.785156 Z M 242.933594 437.503906 " clip-rule="nonzero"/></clipPath><clipPath id="da321b4141"><path d="M 208 414 L 231 414 L 231 473 L 208 473 Z M 208 414 " clip-rule="nonzero"/></clipPath><clipPath id="65eec43e23"><path d="M 230.992188 416.628906 L 225.167969 472.265625 L 208.109375 470.480469 L 213.929688 414.84375 Z M 230.992188 416.628906 " clip-rule="nonzero"/></clipPath><clipPath id="ff0ccc6536"><path d="M 593 435 L 632 435 L 632 494 L 593 494 Z M 593 435 " clip-rule="nonzero"/></clipPath><clipPath id="c9347b71e0"><path d="M 609.777344 435.21875 L 631.183594 486.902344 L 615.332031 493.464844 L 593.929688 441.78125 Z M 609.777344 435.21875 " clip-rule="nonzero"/></clipPath><clipPath id="a874144048"><path d="M 599 414 L 638 414 L 638 473 L 599 473 Z M 599 414 " clip-rule="nonzero"/></clipPath><clipPath id="703f08cec0"><path d="M 615.675781 414.019531 L 637.078125 465.703125 L 621.230469 472.269531 L 599.824219 420.582031 Z M 615.675781 414.019531 " clip-rule="nonzero"/></clipPath></defs><rect x="-84" width="1008" fill="#ffffff" y="-83.999999" height="1007.999991" fill-opacity="1"/><rect x="-84" width="1008" fill="#ffffff" y="-83.999999" height="1007.999991" fill-opacity="1"/><g clip-path="url(#531a50ad08)"><g clip-path="url(#35fceb470c)"><path stroke-linecap="butt" transform="matrix(0.75, 0, 0, 0.75, 152.190421, 25.486086)" fill="none" stroke-linejoin="miter" d="M 68.001322 -0.00228163 L 643.115971 -0.00228163 C 661.152431 -0.00228163 678.4441 7.164386 691.19931 19.914387 C 703.949311 32.669597 711.115979 49.966474 711.115979 67.997726 L 711.115979 563.237366 C 711.115979 581.268618 703.949311 598.565495 691.19931 611.315497 C 678.4441 624.070707 661.152431 631.232166 643.115971 631.232166 L 68.001322 631.232166 C 49.964861 631.232166 32.667984 624.070707 19.917983 611.315497 C 7.162773 598.565495 0.00131378 581.268618 0.00131378 563.237366 L 0.00131378 67.997726 C 0.00131378 49.966474 7.162773 32.669597 19.917983 19.914387 C 32.667984 7.164386 49.964861 -0.00228163 68.001322 -0.00228163 Z M 68.001322 -0.00228163 " stroke="#000000" stroke-width="14" stroke-opacity="1" stroke-miterlimit="4"/></g></g><g clip-path="url(#eff8e5262e)"><path fill="#1a1a1a" d="M 623.480469 486.535156 C 622.296875 486.535156 621.234375 485.714844 620.972656 484.515625 C 620.738281 483.445312 615.214844 458.113281 615.027344 445.117188 C 615.003906 443.484375 614.960938 442.007812 614.917969 440.578125 C 614.65625 431.664062 614.5 426.285156 620.203125 416.121094 C 622.339844 412.3125 625.359375 407.679688 628.859375 402.316406 C 638.234375 387.9375 651.078125 368.246094 655.339844 350.511719 C 665.460938 308.410156 645.628906 269.3125 607.109375 255.425781 C 579.101562 245.328125 537.589844 240.292969 498.863281 273.652344 C 475.546875 293.742188 479.378906 315.621094 481.019531 324.960938 C 481.347656 326.839844 481.566406 328.082031 481.511719 329.042969 C 481.277344 333.222656 478.691406 336.398438 475.113281 340.800781 C 474.351562 341.738281 473.5625 342.703125 472.722656 343.773438 C 470.011719 347.214844 466.648438 350.757812 463.390625 354.183594 C 459.921875 357.835938 454.753906 363.28125 454.1875 365.265625 C 455.902344 367.578125 460.359375 369.574219 463.96875 371.191406 C 468.851562 373.378906 472.707031 375.105469 472.546875 378.511719 C 472.226562 385.191406 468.054688 388.433594 465.292969 390.582031 C 464.640625 391.089844 463.769531 391.769531 463.457031 392.160156 C 463.9375 393.488281 467.355469 396.554688 470.917969 398.808594 C 471.753906 399.335938 472.214844 400.300781 472.097656 401.28125 C 471.980469 402.265625 471.308594 403.09375 470.371094 403.414062 C 470.34375 403.421875 466.359375 404.851562 464.921875 408.03125 C 464.039062 409.984375 465.039062 411.320312 467.535156 413.898438 C 469.1875 415.609375 470.898438 417.378906 470.957031 419.746094 C 471.011719 422.121094 470.359375 424.480469 469.726562 426.757812 C 468.503906 431.171875 467.351562 435.335938 470.328125 440.542969 C 471.246094 442.148438 475.113281 444.085938 488.332031 444.1875 C 511.242188 444.371094 517.878906 452.191406 520.058594 454.761719 C 520.179688 454.902344 520.28125 455.027344 520.375 455.128906 C 527.515625 463.019531 525.75 482.085938 525.523438 484.234375 C 525.378906 485.644531 524.117188 486.671875 522.703125 486.519531 C 521.289062 486.375 520.265625 485.109375 520.414062 483.699219 C 520.953125 478.492188 521.320312 463.832031 516.5625 458.574219 C 516.441406 458.4375 516.300781 458.273438 516.140625 458.085938 C 514.335938 455.960938 508.847656 449.492188 488.292969 449.328125 C 478.449219 449.25 468.921875 448.445312 465.867188 443.09375 C 461.828125 436.027344 463.460938 430.128906 464.773438 425.386719 C 465.332031 423.378906 465.855469 421.484375 465.816406 419.867188 C 465.726562 419.421875 464.546875 418.203125 463.84375 417.472656 C 461.445312 414.996094 457.824219 411.253906 460.238281 405.914062 C 461.292969 403.582031 463.042969 401.878906 464.679688 400.707031 C 461.894531 398.550781 458.664062 395.476562 458.304688 392.609375 C 457.953125 389.777344 460.179688 388.050781 462.140625 386.523438 C 464.542969 384.65625 467.019531 382.730469 467.382812 378.730469 C 466.523438 377.96875 463.753906 376.726562 461.867188 375.882812 C 457.226562 373.804688 451.96875 371.449219 449.613281 367.671875 C 447.191406 363.78125 452.152344 358.558594 459.664062 350.644531 C 462.839844 347.304688 466.121094 343.847656 468.6875 340.59375 C 469.554688 339.492188 470.351562 338.507812 471.125 337.558594 C 474.207031 333.773438 476.238281 331.269531 476.378906 328.757812 C 476.398438 328.371094 476.164062 327.03125 475.957031 325.851562 C 474.320312 316.523438 469.980469 291.753906 495.511719 269.757812 C 511.929688 255.613281 530.421875 246.925781 550.476562 243.941406 C 569.230469 241.148438 588.875 243.386719 608.851562 250.589844 C 628.003906 257.496094 643.765625 270.902344 653.230469 288.347656 C 663.359375 307.007812 665.816406 328.917969 660.335938 351.710938 C 655.867188 370.3125 642.746094 390.429688 633.164062 405.121094 C 629.714844 410.410156 626.738281 414.976562 624.683594 418.636719 C 619.679688 427.558594 619.804688 431.859375 620.054688 440.429688 C 620.097656 441.875 620.140625 443.375 620.164062 445.039062 C 620.347656 457.519531 625.933594 483.15625 625.992188 483.414062 C 626.296875 484.800781 625.417969 486.171875 624.03125 486.476562 C 623.847656 486.515625 623.660156 486.535156 623.480469 486.535156 " fill-opacity="1" fill-rule="nonzero"/></g><g clip-path="url(#1c7ab06d36)"><path fill="#ffffff" d="M 669.5 169.832031 L 669.5 433.84375 L 530.148438 433.84375 L 530.148438 169.832031 Z M 669.5 169.832031 " fill-opacity="1" fill-rule="nonzero"/></g><g clip-path="url(#eb3cc3c4c0)"><path fill="#1a1a1a" d="M 214.84375 485.105469 C 216.023438 485.105469 217.089844 484.285156 217.351562 483.082031 C 217.585938 482.011719 223.105469 456.683594 223.296875 443.6875 C 223.320312 442.054688 223.363281 440.578125 223.40625 439.148438 C 223.664062 430.234375 223.820312 424.851562 218.121094 414.691406 C 215.984375 410.882812 212.960938 406.25 209.464844 400.882812 C 200.085938 386.507812 187.246094 366.816406 182.984375 349.078125 C 172.863281 306.980469 192.695312 267.878906 231.214844 253.996094 C 259.21875 243.894531 300.734375 238.859375 339.460938 272.222656 C 362.777344 292.308594 358.941406 314.1875 357.304688 323.53125 C 356.976562 325.410156 356.757812 326.652344 356.8125 327.609375 C 357.042969 331.789062 359.632812 334.96875 363.210938 339.371094 C 363.972656 340.304688 364.757812 341.273438 365.601562 342.34375 C 368.3125 345.78125 371.675781 349.328125 374.933594 352.753906 C 378.398438 356.40625 383.566406 361.847656 384.132812 363.835938 C 382.421875 366.148438 377.964844 368.144531 374.355469 369.761719 C 369.472656 371.949219 365.613281 373.675781 365.777344 377.078125 C 366.09375 383.761719 370.265625 387.003906 373.027344 389.148438 C 373.683594 389.660156 374.554688 390.335938 374.867188 390.726562 C 374.386719 392.058594 370.964844 395.125 367.40625 397.378906 C 366.570312 397.90625 366.109375 398.867188 366.226562 399.851562 C 366.34375 400.835938 367.011719 401.664062 367.949219 401.980469 C 367.980469 401.992188 371.964844 403.421875 373.402344 406.601562 C 374.285156 408.554688 373.285156 409.890625 370.789062 412.46875 C 369.132812 414.179688 367.421875 415.945312 367.367188 418.316406 C 367.3125 420.691406 367.964844 423.046875 368.597656 425.328125 C 369.816406 429.738281 370.972656 433.90625 367.996094 439.113281 C 367.078125 440.71875 363.210938 442.65625 349.992188 442.757812 C 327.082031 442.9375 320.445312 450.757812 318.265625 453.328125 C 318.144531 453.472656 318.039062 453.59375 317.949219 453.695312 C 310.808594 461.589844 312.574219 480.652344 312.796875 482.800781 C 312.945312 484.214844 314.207031 485.242188 315.621094 485.089844 C 317.03125 484.941406 318.054688 483.679688 317.910156 482.265625 C 317.367188 477.0625 317.003906 462.402344 321.761719 457.144531 C 321.882812 457.007812 322.023438 456.84375 322.183594 456.65625 C 323.988281 454.527344 329.476562 448.058594 350.03125 447.898438 C 359.871094 447.820312 369.402344 447.011719 372.457031 441.664062 C 376.496094 434.597656 374.859375 428.695312 373.550781 423.957031 C 372.992188 421.949219 372.46875 420.050781 372.503906 418.4375 C 372.59375 417.992188 373.777344 416.773438 374.480469 416.042969 C 376.878906 413.566406 380.5 409.820312 378.085938 404.484375 C 377.027344 402.148438 375.28125 400.449219 373.644531 399.273438 C 376.425781 397.121094 379.660156 394.046875 380.015625 391.179688 C 380.371094 388.347656 378.144531 386.617188 376.183594 385.089844 C 373.78125 383.226562 371.304688 381.300781 370.941406 377.296875 C 371.800781 376.535156 374.570312 375.296875 376.457031 374.453125 C 381.09375 372.375 386.355469 370.019531 388.710938 366.242188 C 391.132812 362.351562 386.171875 357.125 378.65625 349.214844 C 375.484375 345.871094 372.199219 342.414062 369.636719 339.164062 C 368.769531 338.0625 367.972656 337.078125 367.195312 336.128906 C 364.117188 332.339844 362.082031 329.839844 361.941406 327.324219 C 361.925781 326.9375 362.160156 325.601562 362.367188 324.417969 C 364.003906 315.09375 368.34375 290.320312 342.8125 268.328125 C 326.390625 254.179688 307.898438 245.496094 287.847656 242.511719 C 269.089844 239.71875 249.449219 241.957031 229.472656 249.160156 C 210.320312 256.0625 194.558594 269.472656 185.089844 286.917969 C 174.964844 305.578125 172.507812 327.488281 177.988281 350.28125 C 182.457031 368.878906 195.578125 389 205.160156 403.691406 C 208.609375 408.976562 211.585938 413.546875 213.640625 417.207031 C 218.644531 426.125 218.515625 430.425781 218.269531 439 C 218.226562 440.445312 218.183594 441.941406 218.160156 443.609375 C 217.976562 456.089844 212.390625 481.726562 212.332031 481.984375 C 212.027344 483.371094 212.90625 484.738281 214.292969 485.042969 C 214.476562 485.085938 214.660156 485.105469 214.84375 485.105469 " fill-opacity="1" fill-rule="nonzero"/></g><g clip-path="url(#ef42126988)"><path fill="#d64b4b" d="M 658.425781 238.746094 C 658.425781 195.875 608.152344 161.117188 546.136719 161.117188 C 484.125 161.117188 433.851562 195.875 433.851562 238.746094 C 433.851562 278.972656 478.101562 312.042969 534.78125 315.980469 L 563.042969 363.214844 L 563.042969 315.5 C 617.035156 309.863281 658.425781 277.648438 658.425781 238.746094 " fill-opacity="1" fill-rule="nonzero"/></g><g clip-path="url(#07e8e78c5a)"><path fill="#ffffff" d="M 305.570312 169.832031 L 305.570312 433.84375 L 166.214844 433.84375 L 166.214844 169.832031 Z M 305.570312 169.832031 " fill-opacity="1" fill-rule="nonzero"/></g><g mask="url(#800c6892eb)"><g transform="matrix(1, 0, 0, 1, 253, 33)"><g clip-path="url(#5b4618ebf0)"><g clip-path="url(#ee34a1589e)"><path fill="#0097b2" d="M 1.390625 103.339844 C 1.390625 47.167969 67.265625 1.625 148.523438 1.625 C 229.777344 1.625 295.652344 47.167969 295.652344 103.339844 C 295.652344 156.046875 237.671875 199.382812 163.40625 204.539062 L 126.371094 266.429688 L 126.371094 203.90625 C 55.625 196.523438 1.390625 154.316406 1.390625 103.339844 " fill-opacity="1" fill-rule="nonzero"/></g></g></g></g><g clip-path="url(#a9ce5a2160)"><path fill="#ffbd59" d="M 174.660156 256.242188 C 174.660156 213.371094 224.933594 178.617188 286.949219 178.617188 C 348.964844 178.617188 399.238281 213.371094 399.238281 256.242188 C 399.238281 296.46875 354.988281 329.542969 298.308594 333.476562 L 270.046875 380.710938 L 270.046875 332.996094 C 216.050781 327.359375 174.660156 295.148438 174.660156 256.242188 " fill-opacity="1" fill-rule="nonzero"/></g><g clip-path="url(#5eab53d19b)"><g clip-path="url(#6ab8f900ef)"><path fill="#ffffff" d="M 242.933594 437.503906 L 224.277344 490.253906 L 208.101562 484.535156 L 226.761719 431.785156 Z M 242.933594 437.503906 " fill-opacity="1" fill-rule="nonzero"/></g></g><g clip-path="url(#da321b4141)"><g clip-path="url(#65eec43e23)"><path fill="#ffffff" d="M 230.992188 416.628906 L 225.167969 472.277344 L 208.105469 470.492188 L 213.929688 414.84375 Z M 230.992188 416.628906 " fill-opacity="1" fill-rule="nonzero"/></g></g><g clip-path="url(#ff0ccc6536)"><g clip-path="url(#c9347b71e0)"><path fill="#ffffff" d="M 609.777344 435.21875 L 631.1875 486.910156 L 615.335938 493.476562 L 593.929688 441.78125 Z M 609.777344 435.21875 " fill-opacity="1" fill-rule="nonzero"/></g></g><g clip-path="url(#a874144048)"><g clip-path="url(#703f08cec0)"><path fill="#ffffff" d="M 615.675781 414.019531 L 637.082031 465.714844 L 621.234375 472.277344 L 599.824219 420.582031 Z M 615.675781 414.019531 " fill-opacity="1" fill-rule="nonzero"/></g></g><g fill="#000000" fill-opacity="1"><g transform="translate(45.029814, 752.107231)"><g><path d="M 199.109375 0 L 199.109375 -5.578125 L 181.296875 -5.578125 L 181.296875 -96.234375 C 181.296875 -109.25 179.171875 -122.015625 175.453125 -131.578125 C 164.546875 -158.4375 137.4375 -176.78125 107.125 -176.78125 C 76.828125 -176.78125 49.703125 -158.4375 38.8125 -131.578125 C 35.09375 -122.015625 32.96875 -109.25 32.96875 -96.234375 L 32.96875 -5.578125 L 14.625 -5.578125 L 14.625 0 L 82.40625 0 L 82.40625 -5.578125 L 64.59375 -5.578125 L 64.59375 -116.96875 C 64.59375 -150.984375 82.40625 -171.1875 107.125 -171.1875 C 131.84375 -171.1875 149.65625 -150.984375 149.65625 -116.96875 L 149.65625 -5.578125 L 131.84375 -5.578125 L 131.84375 0 Z M 199.109375 0 "/></g></g></g><g fill="#000000" fill-opacity="1"><g transform="translate(258.758476, 752.107231)"><g><path d="M 85.0625 0 L 85.0625 -5.578125 L 67.25 -5.578125 L 67.25 -244.5625 L 17.28125 -244.5625 L 17.28125 -238.984375 L 35.625 -238.984375 L 35.625 -5.578125 L 17.28125 -5.578125 L 17.28125 0 Z M 85.0625 0 "/></g></g></g><g fill="#000000" fill-opacity="1"><g transform="translate(345.153762, 752.107231)"><g><path d="M 149.65625 -68.3125 C 149.65625 -48.375 149.390625 -32.96875 138.765625 -18.609375 C 133.1875 -11.171875 122.546875 -2.921875 107.390625 -2.921875 C 90.109375 -2.921875 72.578125 -14.359375 64.59375 -34.03125 L 64.59375 -109.515625 C 64.59375 -135.046875 68.84375 -148.0625 77.09375 -157.375 C 84.796875 -166.140625 94.640625 -171.1875 107.125 -171.1875 C 120.6875 -171.1875 131.84375 -165.078125 138.765625 -155.515625 C 147 -144.34375 149.65625 -132.375 149.65625 -107.390625 Z M 32.96875 64.859375 L 14.625 64.859375 L 14.625 70.4375 L 64.59375 70.4375 L 64.59375 -22.0625 C 72.84375 -7.96875 89.84375 2.65625 108.71875 2.65625 C 129.453125 2.65625 149.390625 -7.171875 162.15625 -21.53125 C 174.921875 -35.890625 181.296875 -54.234375 181.296875 -77.359375 L 181.296875 -95.96875 C 181.296875 -121.484375 175.71875 -137.96875 161.09375 -153.921875 C 147.53125 -168.53125 126.796875 -176.78125 107.125 -176.78125 C 74.96875 -176.78125 45.984375 -156.3125 36.953125 -126.53125 C 33.765625 -116.4375 32.96875 -108.1875 32.96875 -96.765625 Z M 32.96875 64.859375 "/></g></g></g><g fill="#000000" fill-opacity="1"><g transform="translate(545.059179, 752.107231)"><g><path d="M 118.03125 -135.84375 L 118.03125 -178.375 L 112.4375 -178.375 L 112.4375 -157.90625 C 106.0625 -169.859375 93.578125 -176.78125 77.09375 -176.78125 C 49.4375 -176.78125 26.578125 -153.65625 26.578125 -124.9375 C 26.578125 -60.875 119.625 -84.265625 119.625 -38.546875 C 119.625 -18.34375 101.8125 -2.921875 77.359375 -2.921875 C 49.96875 -2.921875 28.703125 -22.859375 26.578125 -50.765625 L 21 -50.765625 L 21 2.65625 L 26.578125 2.65625 L 26.578125 -26.578125 C 36.6875 -7.96875 55.296875 2.65625 77.09375 2.65625 C 109.78125 2.65625 135.578125 -22.328125 135.578125 -53.4375 C 135.578125 -118.5625 44.65625 -93.84375 44.65625 -139.5625 C 44.65625 -157.109375 59.015625 -170.921875 78.15625 -170.921875 C 97.828125 -170.921875 111.109375 -157.640625 112.71875 -135.84375 Z M 118.03125 -135.84375 "/></g></g></g><g fill="#000000" fill-opacity="1"><g transform="translate(693.924938, 752.107231)"><g><path d="M 67.25 -218.25 C 67.25 -227.546875 59.546875 -235.265625 50.234375 -235.265625 C 40.9375 -235.265625 33.234375 -227.546875 33.234375 -218.25 C 33.234375 -208.9375 40.9375 -201.234375 50.234375 -201.234375 C 59.546875 -201.234375 67.25 -208.9375 67.25 -218.25 Z M 85.0625 0 L 85.0625 -5.578125 L 67.25 -5.578125 L 67.25 -174.390625 L 17.28125 -174.390625 L 17.28125 -168.796875 L 35.625 -168.796875 L 35.625 -5.578125 L 17.28125 -5.578125 L 17.28125 0 Z M 85.0625 0 "/></g></g></g></svg>